<?xml version="1.0" encoding="UTF-8"?>
<svg id="_Слой_2" data-name="Слой 2" xmlns="http://www.w3.org/2000/svg" viewBox="0 0 1000 998.21">
  <defs>
    <style>
      .cls-2 {
        fill: #232b48;
      }

      .cls-3 {
        fill: #29ad87;
      }
    </style>
  </defs>
  <g>
    <g>
      <path class="cls-3" d="M.1,773.9v-204c0-13.28,4.06-17.64,17.44-17.54,84.61,.4,169.26,.4,253.94,0,9.75-1.21,18.75,5.4,20.51,15.06,21.21,66.92,73.84,119.21,140.89,140,9.26,1.76,15.5,10.49,14.17,19.82-.4,84.68-.4,169.32,0,253.94,0,12.38-3.07,17.04-16.25,17.04-138.31-.46-276.63-.46-414.94,0-12.09,0-15.95-3.86-15.85-15.95C.5,912.91,0,843.55,0,774.2l.1-.3Z"/>
      <path class="cls-2" d="M.7,222.23V16.94C.1,3.27,4.86,0,17.84,0,155.16,.4,292.48,.4,429.8,0c12.19,0,17.04,2.68,16.94,16.05-.46,85.08-.46,170.15,0,255.23,1.16,8.88-4.79,17.12-13.57,18.82-68.35,21.35-121.63,75.26-142.18,143.86-1.51,7.8-8.88,13.04-16.74,11.89H16.25c-13.57,0-16.15-5.05-16.15-16.94C.6,360.05,.1,291.19,.1,222.23H.7Z"/>
      <path class="cls-3" d="M778.16,998.01h-205.39c-18.63,0-18.73,0-18.73-17.93v-252.65c-1.57-9.25,4.55-18.06,13.77-19.82,59.08-18.49,107.35-61.52,132.47-118.1,4.16-8.72,7.83-10.5,16.74-6.84,102.89,39.83,187.18,116.7,236.3,215.49,28.58,56.2,44.45,118,46.47,181.02,.69,18.82,.59,18.92-18.92,18.92h-202.71v-.1Z"/>
      <path class="cls-2" d="M776.97,0h208.06c8.82,0,14.86,0,14.66,12.19-4.52,178.88-115.77,337.65-282.37,402.95-9.91,3.96-13.28,1.09-17.34-7.63-25.48-56.43-73.92-99.25-133.06-117.61-8.37-1.47-14.04-9.33-12.78-17.73,.46-85.87,.46-171.47,0-256.81-.1-12.58,4.16-15.36,15.95-15.36,68.96,.5,137.92,0,206.88,0Z"/>
    </g>
  </g>
</svg>