<svg xmlns="http://www.w3.org/2000/svg" viewBox="0 0 500 100" width="300" height="60">
  <style>
    .cls-2 {
    fill: #232b48;
    }

    .cls-3 {
    fill: #0d0d0d;
    }

    .cls-4 {
    fill: #29ad87;
    }

    @media (prefers-color-scheme:dark) { .cls-3 { fill: #fff } }
  </style>
  <g class="cls-5">
    <path class="cls-3" d="M140.38,76.78c-4.8,0-9.01-.99-12.63-2.98-3.63-1.99-6.44-4.83-8.43-8.54-1.97-3.72-2.96-8.05-2.96-12.98h0c0-4.93,.99-9.23,2.96-12.91,1.99-3.69,4.8-6.53,8.43-8.52,3.61-1.97,7.82-2.96,12.63-2.96h0c4.8,0,9.01,.99,12.63,2.96,3.61,1.99,6.4,4.83,8.35,8.52,1.96,3.68,2.93,7.98,2.93,12.91h0c0,4.93-.98,9.25-2.93,12.98-1.96,3.71-4.74,6.56-8.35,8.54-3.61,1.99-7.82,2.98-12.63,2.98h0Zm-.09-9.32c3.9,0,6.87-1.28,8.92-3.85s3.07-6.34,3.07-11.34h0c0-4.93-1.02-8.69-3.07-11.29-2.05-2.6-4.99-3.9-8.82-3.9h0c-3.85,0-6.81,1.3-8.89,3.9-2.08,2.6-3.12,6.36-3.12,11.29h0c0,4.99,1.02,8.77,3.07,11.34s5,3.85,8.85,3.85h0Z"/>
    <path class="cls-3" d="M214.47,7.81c1.78,0,3.25,.52,4.41,1.55,1.16,1.02,1.74,2.36,1.74,4.04h0v57.43c0,1.72-.55,3.1-1.64,4.13-1.08,1.02-2.52,1.53-4.32,1.53h0c-1.8,0-3.24-.51-4.32-1.53-1.1-1.03-1.64-2.41-1.64-4.13h0v-2.39c-1.41,2.61-3.44,4.66-6.1,6.15-2.64,1.47-5.66,2.21-9.06,2.21h0c-4.04,0-7.64-1.02-10.82-3.07-3.16-2.05-5.62-4.95-7.39-8.71-1.75-3.74-2.63-8.04-2.63-12.91h0c0-4.87,.88-9.12,2.63-12.77,1.77-3.66,4.22-6.48,7.35-8.47,3.14-1.97,6.77-2.96,10.87-2.96h0c3.4,0,6.4,.7,9.01,2.11,2.63,1.41,4.65,3.39,6.05,5.94h0V13.18c0-1.6,.53-2.89,1.6-3.87,1.05-1,2.47-1.5,4.27-1.5h0Zm-17.77,59.66c3.83,0,6.79-1.31,8.87-3.94,2.08-2.63,3.12-6.38,3.12-11.24h0c0-4.87-1.04-8.6-3.12-11.19-2.08-2.58-5.01-3.87-8.78-3.87h0c-3.85,0-6.83,1.28-8.94,3.83-2.11,2.57-3.17,6.25-3.17,11.05h0c0,4.87,1.06,8.64,3.17,11.34,2.11,2.69,5.06,4.04,8.85,4.04h0Z"/>
    <path class="cls-3" d="M251.2,27.9c6.52,0,11.37,1.61,14.55,4.83,3.16,3.24,4.74,8.15,4.74,14.74h0v23.44c0,1.74-.51,3.1-1.53,4.08-1.03,.99-2.44,1.48-4.22,1.48h0c-1.67,0-3.04-.51-4.08-1.53-1.06-1.03-1.6-2.38-1.6-4.04h0v-2.11c-1.08,2.5-2.79,4.46-5.14,5.87-2.33,1.41-5.03,2.11-8.1,2.11h0c-3.14,0-6-.64-8.57-1.92-2.55-1.28-4.57-3.04-6.05-5.28-1.47-2.24-2.21-4.73-2.21-7.49h0c0-3.46,.88-6.18,2.65-8.17,1.75-1.99,4.62-3.43,8.59-4.34,3.97-.89,9.45-1.34,16.43-1.34h2.39v-2.21c0-3.13-.67-5.42-2.02-6.88-1.35-1.44-3.52-2.16-6.52-2.16h0c-1.86,0-3.75,.27-5.66,.82-1.92,.55-4.2,1.33-6.83,2.35h0c-1.66,.84-2.88,1.27-3.66,1.27h0c-1.14,0-2.08-.42-2.82-1.27-.74-.83-1.1-1.92-1.1-3.26h0c0-1.08,.27-2.02,.8-2.82,.55-.81,1.46-1.57,2.75-2.28h0c2.24-1.2,4.91-2.16,8.03-2.86,3.1-.7,6.16-1.06,9.18-1.06h0Zm-2.98,40.22c3.19,0,5.8-1.07,7.81-3.22,2.02-2.14,3.03-4.91,3.03-8.31h0v-2.02h-1.71c-4.3,0-7.63,.2-10,.59-2.36,.38-4.06,1.05-5.09,2.02-1.02,.95-1.53,2.27-1.53,3.94h0c0,2.05,.72,3.72,2.16,5.02,1.44,1.31,3.22,1.97,5.33,1.97h0Z"/>
    <path class="cls-3" d="M334.09,27.9c5.12,0,9.04,1.52,11.76,4.55,2.72,3.04,4.08,7.95,4.08,14.74h0v23.63c0,1.86-.56,3.29-1.67,4.27-1.13,1-2.59,1.5-4.39,1.5h0c-1.72,0-3.14-.5-4.27-1.5-1.11-.99-1.67-2.41-1.67-4.27h0v-23.63c0-3.52-.63-6.03-1.88-7.53-1.25-1.5-3.16-2.25-5.73-2.25h0c-3.13,0-5.62,1.07-7.49,3.22-1.86,2.14-2.79,5.07-2.79,8.78h0v21.43c0,1.86-.56,3.29-1.67,4.27-1.13,1-2.55,1.5-4.27,1.5h0c-1.74,0-3.18-.5-4.34-1.5-1.14-.99-1.71-2.41-1.71-4.27h0v-23.63c0-3.52-.63-6.03-1.88-7.53-1.25-1.5-3.16-2.25-5.73-2.25h0c-3.13,0-5.61,1.07-7.44,3.22-1.81,2.14-2.72,5.07-2.72,8.78h0v21.43c0,1.86-.58,3.29-1.74,4.27-1.16,1-2.6,1.5-4.32,1.5h0c-1.74,0-3.16-.5-4.27-1.5-1.13-.99-1.69-2.41-1.69-4.27h0V33.65c0-1.8,.58-3.18,1.74-4.13,1.14-.95,2.58-1.43,4.32-1.43h0c1.66,0,3.02,.46,4.08,1.38,1.05,.92,1.57,2.25,1.57,3.99h0v2.3c1.47-2.57,3.44-4.52,5.91-5.87,2.47-1.33,5.3-1.99,8.5-1.99h0c7.04,0,11.75,2.94,14.13,8.82h0c1.41-2.69,3.49-4.83,6.24-6.43,2.75-1.6,5.86-2.39,9.32-2.39h0Z"/>
    <g>
      <path class="cls-3" d="M365.31,27.32c-1.74,0-3.16,.48-4.27,1.43-1.13,.95-1.69,2.36-1.69,4.22v37.08c0,1.86,.56,3.29,1.69,4.27,1.11,1,2.53,1.5,4.27,1.5s3.16-.5,4.32-1.5c1.16-.99,1.74-2.41,1.74-4.27V32.98c0-1.86-.58-3.27-1.74-4.22-1.16-.95-2.6-1.43-4.32-1.43Z"/>
      <path class="cls-4" d="M365.29,18.72c2.17,0,3.9-.59,5.19-1.76,1.28-1.19,1.92-2.75,1.92-4.67s-.66-3.46-1.97-4.6c-1.31-1.16-3.03-1.74-5.14-1.74s-3.9,.58-5.19,1.74c-1.28,1.14-1.92,2.68-1.92,4.6s.64,3.48,1.92,4.67c1.28,1.17,3.01,1.76,5.19,1.76Z"/>
    </g>
    <path class="cls-3" d="M412.87,67.65c3.19,.19,4.79,1.63,4.79,4.32h0c0,1.53-.63,2.7-1.88,3.5-1.24,.81-3.01,1.15-5.33,1.01h0l-2.58-.19c-10.76-.77-16.15-6.52-16.15-17.27h0v-20.96h-4.79c-1.74,0-3.07-.38-3.99-1.15-.94-.77-1.41-1.89-1.41-3.36h0c0-1.47,.47-2.59,1.41-3.36,.92-.77,2.25-1.15,3.99-1.15h4.79v-8.85c0-1.72,.55-3.1,1.64-4.13,1.08-1.02,2.55-1.53,4.41-1.53h0c1.8,0,3.24,.51,4.32,1.53,1.1,1.03,1.64,2.41,1.64,4.13h0v8.85h8.17c1.72,0,3.05,.38,3.99,1.15,.92,.77,1.38,1.89,1.38,3.36h0c0,1.47-.46,2.59-1.38,3.36-.94,.77-2.27,1.15-3.99,1.15h-8.17v21.8c0,4.74,2.17,7.28,6.52,7.6h0l2.6,.19Z"/>
    <path class="cls-3" d="M464.18,31.54c.5-1.16,1.19-2,2.07-2.53,.86-.55,1.8-.82,2.82-.82h0c1.49,0,2.82,.49,3.99,1.48,1.19,1,1.78,2.24,1.78,3.71h0c0,.7-.2,1.44-.59,2.21h0l-26.21,54.94c-1.08,2.17-2.78,3.26-5.09,3.26h0c-1.47,0-2.77-.46-3.9-1.38-1.11-.94-1.67-2.11-1.67-3.52h0c0-.7,.19-1.5,.56-2.39h0l6.55-13.73-17.88-37.17c-.31-.64-.47-1.38-.47-2.21h0c0-1.47,.63-2.72,1.88-3.75,1.25-1.02,2.68-1.53,4.27-1.53h0c1.08,0,2.07,.27,2.98,.8,.89,.55,1.6,1.4,2.11,2.56h0l13.45,29.69,13.35-29.59Z"/>
  </g>
  <g>
    <path class="cls-4" d="M24.61,72.99v-16.87c0-1.1,.34-1.46,1.44-1.45,7,.03,13.99,.03,20.99,0,.81-.1,1.55,.45,1.7,1.25,1.75,5.53,6.1,9.86,11.65,11.57,.77,.15,1.28,.87,1.17,1.64-.03,7-.03,14,0,20.99,0,1.02-.25,1.41-1.34,1.41-11.43-.04-22.87-.04-34.3,0-1,0-1.32-.32-1.31-1.32,.04-5.73,0-11.47,0-17.2v-.02Z"/>
    <path class="cls-2" d="M24.66,27.38V10.41c-.05-1.13,.34-1.4,1.42-1.4,11.35,.03,22.71,.03,34.06,0,1.01,0,1.41,.22,1.4,1.33-.04,7.03-.04,14.07,0,21.1,.1,.73-.4,1.42-1.12,1.56-5.65,1.77-10.06,6.22-11.75,11.89-.12,.65-.73,1.08-1.38,.98H25.95c-1.12,0-1.34-.42-1.34-1.4,.04-5.69,0-11.39,0-17.09h.05Z"/>
    <path class="cls-4" d="M88.94,91.51h-16.98c-1.54,0-1.55,0-1.55-1.48v-20.89c-.13-.76,.38-1.49,1.14-1.64,4.88-1.53,8.87-5.09,10.95-9.76,.34-.72,.65-.87,1.38-.57,8.51,3.29,15.47,9.65,19.54,17.82,2.36,4.65,3.67,9.76,3.84,14.97,.06,1.56,.05,1.56-1.56,1.56h-16.76Z"/>
    <path class="cls-2" d="M88.84,9.01h17.2c.73,0,1.23,0,1.21,1.01-.37,14.79-9.57,27.91-23.34,33.31-.82,.33-1.1,.09-1.43-.63-2.11-4.67-6.11-8.21-11-9.72-.69-.12-1.16-.77-1.06-1.47,.04-7.1,.04-14.18,0-21.23,0-1.04,.34-1.27,1.32-1.27,5.7,.04,11.4,0,17.1,0Z"/>
  </g>
</svg>